# xmcd CD database file
#
# Track frame offsets:
#	180
#	10598
#	21424
#	38015
#	53378
#	66287
#	83881
#	96304
#	111653
#	131627
#	144366
#	158423
#	170263
#
# Disc length: 2503 seconds
#
# Revision: 1
# Processed by: cddbd v1.5.2PL0 Copyright (c) Steve Scherf et al.
# Submitted via: CDex 1.70beta2
#
DISCID=a009c50d
DTITLE=Kenny Hess - Back to Reality
DYEAR=1993
DGENRE=Country
TTITLE0=Almost
TTITLE1=My First Dream
TTITLE2=The Good Life
TTITLE3=Back To Reality
TTITLE4=Crazy Things You Do
TTITLE5=The State She's In
TTITLE6=I Fall To Pieces
TTITLE7=All I Need Is You (duet with Darlana Moffat)
TTITLE8=God Will Do The Rest
TTITLE9=The Cowboy Gets The Girl
TTITLE10=The Fire In You
TTITLE11=Let's Make A Deal
TTITLE12=Untill I Think Of You
EXTD=YEAR: 1993
EXTT0=
EXTT1=
EXTT2=
EXTT3=
EXTT4=
EXTT5=
EXTT6=
EXTT7=
EXTT8=
EXTT9=
EXTT10=
EXTT11=
EXTT12=
PLAYORDER=
